<svg width="670" height="512" viewBox="0 0 670 512" fill="none" xmlns="http://www.w3.org/2000/svg">
<path d="M623.9 441.044L625.044 415.325C636.968 408.951 650.268 405.584 663.789 405.517C645.18 420.731 647.506 450.058 634.889 470.517C630.906 476.868 625.544 482.24 619.201 486.237C612.859 490.234 605.698 492.753 598.25 493.606L582.678 503.14C580.541 491.228 581.012 478.994 584.059 467.282C587.105 455.569 592.655 444.657 600.325 435.295C604.68 430.086 609.673 425.446 615.188 421.485C618.917 431.319 623.9 441.044 623.9 441.044Z" fill="#F2F2F2"/>
<path d="M387.759 509.543C379.828 508.978 377.759 510.543 365.759 509.543H343.759L346.621 456.894L381.255 470.773L553.369 474.998L553.268 475.29C553.19 475.515 545.549 497.867 551.522 506.332L551.77 506.682L551.286 506.686L393.399 508.134C391.675 508.15 389.469 509.665 387.759 509.543Z" fill="#F2F2F2"/>
<path d="M396.686 510.231C381.365 509.141 365.5 515.097 352.259 508.373L341.674 509.014L341.644 508.925C341.562 508.681 336.562 469.339 346.67 454.085L347.115 453.414L347.463 457.027L344.13 506.035L351.516 503.57C369.453 512.013 390.785 506.437 411.315 506.359L551.03 505.843C553.956 505.833 556.394 507.833 556.472 510.302L556.48 510.543L405.125 510.531C402.303 510.531 399.49 510.431 396.686 510.231Z" fill="#CCCCCC"/>
<path d="M543.665 485.616L386.438 482.491L386.277 482.431L349.13 468.509L349.832 466.636L386.819 480.499L543.705 483.616L543.665 485.616Z" fill="#E6E6E6"/>
<path d="M542.826 494.035L385.599 490.91L385.439 490.85L348.291 476.928L348.993 475.055L385.981 488.918L542.866 492.035L542.826 494.035Z" fill="#E6E6E6"/>
<path d="M541.987 502.455L384.76 499.329L384.6 499.269L347.452 485.346L348.154 483.473L385.142 497.337L542.027 500.455L541.987 502.455Z" fill="#E6E6E6"/>
<path d="M397.772 475.542C383.195 474.557 368.982 470.546 356.039 463.766L345.141 457.986L345.426 455.128C345.505 454.709 345.737 454.334 346.076 454.075C346.416 453.816 346.839 453.692 347.264 453.727L348.226 453.738L494.855 455.896C504.451 456.015 513.961 457.741 522.987 461.002L554.935 472.601L554.918 472.77C554.65 475.462 551.936 477.542 548.738 477.505L404.304 475.812C402.12 475.787 399.942 475.696 397.772 475.542Z" fill="#E6E6E6"/>
<path d="M554.628 473.22L554.595 473.218L378.761 469.189L378.639 469.133L346.937 454.452L347.259 453.961L348.222 453.973L379.055 468.259L553.259 472.247L554.655 472.28L554.628 473.22Z" fill="#CCCCCC"/>
<path d="M417.933 455L415.701 454.969L365.309 454.223L362.921 454.19C374.435 466.448 399.893 469.515 437.209 464.766L417.933 455Z" fill="#CCCCCC"/>
<path d="M559.611 161.814L562.685 168.965L557.661 194.36L506.406 187.234L506.815 156.267L507.844 149.485L559.611 161.814Z" fill="#FFB6B6"/>
<path d="M586.092 490.943H574.784L569.402 447.327H586.092V490.943Z" fill="#FFB6B6"/>
<path d="M552.456 505.705C552.457 506.986 552.966 508.214 553.872 509.12C554.778 510.026 556.006 510.535 557.287 510.536H578.8L582.509 502.881L583.949 510.536H592.057L589.778 483.194L586.092 482.978L573.708 482.241L571.712 482.116V489.862L554.543 501.724C553.899 502.169 553.373 502.764 553.009 503.458C552.646 504.151 552.456 504.922 552.456 505.705Z" fill="#2F2E41"/>
<path d="M481.574 440.943H470.266L463.614 376.73L484.861 375.461L481.574 440.943Z" fill="#FFB6B6"/>
<path d="M447.937 455.705C447.938 456.986 448.448 458.214 449.353 459.12C450.259 460.026 451.487 460.535 452.768 460.536H474.281L477.99 452.881L479.43 460.536H487.539L485.259 433.194L481.97 433.001L469.371 432.241L467.194 432.116V439.862L450.024 451.724C449.38 452.169 448.854 452.764 448.49 453.458C448.127 454.151 447.937 454.922 447.937 455.705V455.705Z" fill="#2F2E41"/>
<path d="M590.892 453.331H590.848L588.673 382.412C590.081 379.697 590.795 376.677 590.752 373.619C590.71 370.562 589.912 367.562 588.43 364.888L588.119 364.324L588.926 360.582C589.963 355.774 589.487 350.763 587.564 346.236L585.535 280.083C592.783 233.108 558.241 202.474 558.241 202.474L561.415 177.853L505.545 179.123L506.495 202.474L495.386 240.642C489.54 297.602 450.192 333.404 456.173 387.873C456.185 388.03 456.162 388.187 456.105 388.333C455.498 390.178 455.284 392.13 455.478 394.063C455.671 395.996 456.267 397.867 457.228 399.555C457.477 399.986 457.648 400.457 457.734 400.947C458.966 410.496 459.126 398.417 460.759 407.882L460.441 408.042C459.297 408.437 458.807 410.022 459.345 411.582C459.884 413.142 461.248 414.087 462.392 413.692L492.259 414.011C493.403 413.617 493.893 412.032 493.355 410.472C492.816 408.911 491.452 407.967 490.308 408.362L488.45 409.302L491.559 399.131L492.649 398.113C493.171 397.626 493.576 397.027 493.834 396.361C494.091 395.695 494.195 394.979 494.137 394.267C494.079 393.555 493.861 392.866 493.499 392.25C493.137 391.634 492.64 391.108 492.046 390.712L495.143 374.184L494.703 361.684L495.609 347.504L534.798 290.718L550.653 369.156L566.849 454.12C566.471 454.461 566.187 454.893 566.024 455.375C565.862 455.857 565.826 456.373 565.92 456.873C566.069 457.571 566.456 458.196 567.015 458.641C567.575 459.085 568.271 459.32 568.985 459.307H590.971C591.432 459.307 591.887 459.2 592.299 458.995C592.712 458.79 593.072 458.493 593.351 458.126C593.631 457.759 593.821 457.333 593.908 456.88C593.996 456.427 593.977 455.961 593.855 455.516C593.669 454.877 593.279 454.317 592.743 453.922C592.208 453.527 591.557 453.319 590.892 453.331V453.331Z" fill="#2F2E41"/>
<path d="M571.341 41.1403C571.342 45.6682 570.232 50.1273 568.109 54.1261C565.985 58.1249 562.911 61.5412 559.159 64.0751C555.407 66.609 551.089 68.183 546.587 68.6589C542.084 69.1348 537.533 68.4982 533.334 66.8048C529.134 65.1114 525.415 62.413 522.502 58.9466C519.589 55.4802 517.572 51.3517 516.627 46.9235C515.682 42.4954 515.838 37.9029 517.082 33.5494C518.327 29.1958 520.62 25.2142 523.763 21.9541L523.895 21.8215C524.117 21.5891 524.338 21.3567 524.57 21.1354C524.572 21.1354 524.573 21.1351 524.575 21.1346C524.576 21.134 524.577 21.1332 524.578 21.1322C524.579 21.1311 524.58 21.1299 524.581 21.1285C524.581 21.1272 524.582 21.1257 524.581 21.1243C524.899 20.8927 525.192 20.6295 525.456 20.3387C529.19 15.1207 533.424 10.7452 543.679 13.4787C558.444 17.4141 571.341 25.86 571.341 41.1403Z" fill="#2F2E41"/>
<path d="M419.39 29.2986C419.327 30.7786 419.589 32.2543 420.159 33.6218C420.728 34.9893 421.59 36.2154 422.685 37.2136C423.779 38.2118 425.079 38.958 426.493 39.3994C427.907 39.8409 429.401 39.967 430.869 39.7688L502.206 98.3154L513.103 79.1632L439.554 27.6362C439.057 25.1922 437.682 23.0152 435.687 21.5177C433.693 20.0202 431.219 19.3062 428.733 19.5111C426.248 19.7161 423.924 20.8256 422.202 22.6295C420.48 24.4334 419.479 26.8064 419.39 29.2987V29.2986Z" fill="#FFB6B6"/>
<path d="M532.328 115.581C532.328 115.581 532.307 113.473 520.966 113.554C506.889 113.655 468.12 93.4448 471.512 74.4115C469.902 75.139 468.095 75.3102 466.377 74.8981C464.659 74.486 463.127 73.5141 462.022 72.1353L480.896 53.9637C486.818 54.3637 486.879 58.3268 486.371 60.6024L501.54 66.6297L541.046 89.3269L534.07 112.126L532.328 115.581Z" fill="#6C63FF"/>
<path d="M536.864 70.7358C549.674 70.7358 560.059 60.3509 560.059 47.5404C560.059 34.7299 549.674 24.345 536.864 24.345C524.054 24.345 513.669 34.7299 513.669 47.5404C513.669 60.3509 524.054 70.7358 536.864 70.7358Z" fill="#FFB7B7"/>
<path d="M504.984 162.912C503.703 164.622 503.049 166.72 503.132 168.856C503.214 170.991 504.029 173.032 505.438 174.638C505.449 175.319 505.551 175.976 506.515 178.415C506.641 178.651 506.79 178.875 506.958 179.084C506.989 179.135 507.023 179.184 507.06 179.231C508.075 180.544 509.487 181.495 511.086 181.942L553.545 193.793L559.158 195.358L560.145 195.63L560.689 187.963C561.952 186.917 562.798 185.453 563.075 183.837C563.351 182.221 563.04 180.559 562.198 179.152L561.415 177.859L565.974 165.6L566.416 164.386L578.041 133.098L578.052 131.011L578.075 128.856L578.188 113.819C578.193 109.079 577.101 104.403 574.995 100.157C572.89 95.9106 569.829 92.2101 566.054 89.3455C562.615 86.7176 558.65 84.861 554.429 83.902L554.339 83.8906L549.746 77.71L531.113 79.5699L529.571 82.7339L527.7 86.5443L514.193 94.5848L509.577 105.313L506.459 112.571C501.627 116.041 498.747 120.498 497.919 125.806C496.15 137.078 504.043 148.362 504.984 149.655L505.222 162.595L504.984 162.912Z" fill="#6C63FF"/>
<path d="M561.139 53.6213C560.929 53.5881 560.719 53.5438 560.508 53.5105C556.89 52.8688 553.272 52.2382 549.665 51.5853L549.333 43.4087L544.963 50.7333C534.993 54.0416 525.666 52.1718 516.892 48.0447C513.997 46.6707 511.189 45.1226 508.482 43.4087C507.591 29.58 513.182 20.7271 523.586 21.6555C523.966 21.6895 524.238 21.3015 524.57 21.1354C524.572 21.1354 524.573 21.1352 524.575 21.1346C524.576 21.1341 524.577 21.1332 524.578 21.1322C524.579 21.1312 524.58 21.1299 524.581 21.1286C524.581 21.1272 524.581 21.1258 524.581 21.1243C525.146 20.8588 525.721 20.6043 526.296 20.372C530.801 18.6117 535.712 18.1659 540.46 19.0864C545.208 20.007 549.597 22.2561 553.117 25.5723C560.198 32.333 563.385 43.4971 561.139 53.6213Z" fill="#2F2E41"/>
<path d="M560.508 53.5105C560.508 53.5105 553.637 27.8628 524.183 21.9431C524.15 21.9321 524.039 21.8878 523.895 21.8215C523.807 21.7661 523.696 21.7108 523.586 21.6555C523.918 21.4674 524.238 21.3015 524.57 21.1354C524.572 21.1354 524.573 21.1351 524.575 21.1346C524.576 21.134 524.577 21.1332 524.578 21.1322C524.579 21.1311 524.58 21.1299 524.581 21.1286C524.581 21.1272 524.582 21.1258 524.581 21.1243C524.869 20.8588 525.157 20.5932 525.456 20.3388L526.297 20.372C526.297 20.372 555.85 15.6917 560.508 53.5105Z" fill="#FD6584"/>
<path d="M571.839 215.188C571.294 215.655 570.631 215.962 569.922 216.076C569.214 216.191 568.488 216.109 567.823 215.838C566.501 215.277 565.326 214.418 564.391 213.328C560.576 209.326 557.85 204.413 556.473 199.057L557.746 196.794C557.246 194.002 557.716 191.124 559.078 188.636C560.439 186.149 562.611 184.202 565.232 183.118C566.723 182.486 568.376 182.342 569.954 182.707C570.736 182.902 571.451 183.304 572.024 183.871C572.597 184.439 573.006 185.15 573.208 185.931C573.698 188.352 571.681 190.539 569.638 191.929C566.079 194.344 561.965 195.816 557.682 196.207C562.921 199.16 567.451 203.224 570.951 208.115C571.761 209.135 572.357 210.307 572.707 211.561C572.875 212.19 572.883 212.851 572.732 213.484C572.58 214.118 572.274 214.703 571.839 215.188Z" fill="#2F2E41"/>
<path d="M278.645 511.359H667.926C668.257 511.359 668.574 511.228 668.808 510.994C669.042 510.76 669.173 510.443 669.173 510.112C669.173 509.781 669.042 509.464 668.808 509.23C668.574 508.996 668.257 508.865 667.926 508.865H278.645C278.314 508.865 277.997 508.996 277.763 509.23C277.53 509.464 277.398 509.781 277.398 510.112C277.398 510.443 277.53 510.76 277.763 510.994C277.997 511.228 278.314 511.359 278.645 511.359V511.359V511.359Z" fill="#CCCCCC"/>
<path d="M382.03 190.769V191.421C380.628 189.778 379.197 188.149 377.781 186.52C377.186 185.84 376.591 185.16 375.996 184.48C373.475 181.619 370.939 178.768 368.39 175.925C365.826 173.092 363.262 170.26 360.67 167.441C360.047 166.761 359.424 166.081 358.787 165.401C358.277 164.83 357.722 164.3 357.129 163.815C356.531 163.317 355.844 162.937 355.104 162.696C354.252 162.46 353.354 162.45 352.498 162.668C351.52 162.894 350.586 163.249 349.637 163.546C348.659 163.872 347.696 164.183 346.719 164.495C344.764 165.132 342.824 165.77 340.869 166.407C340.845 166.417 340.82 166.421 340.795 166.421C340.769 166.421 340.744 166.416 340.721 166.406C340.697 166.396 340.676 166.382 340.658 166.364C340.64 166.346 340.626 166.324 340.617 166.301L340.614 166.294C340.603 166.267 340.598 166.238 340.599 166.209C340.6 166.18 340.608 166.152 340.622 166.126C340.635 166.1 340.654 166.078 340.677 166.06C340.701 166.043 340.727 166.031 340.756 166.025C341.237 165.869 341.733 165.713 342.229 165.557C344.198 164.906 346.152 164.268 348.121 163.631C349.098 163.305 350.076 162.994 351.053 162.682C351.96 162.338 352.917 162.146 353.886 162.115C355.468 162.229 356.952 162.926 358.05 164.07C358.659 164.637 359.212 165.231 359.764 165.841C360.415 166.549 361.067 167.257 361.719 167.965C364.339 170.826 366.94 173.697 369.523 176.577C372.115 179.466 374.684 182.361 377.228 185.26C377.412 185.472 377.596 185.685 377.781 185.897C379.211 187.511 380.614 189.141 382.03 190.769Z" fill="white"/>
<path d="M356.91 166.425C356.374 165.735 355.661 165.205 354.847 164.892L354.042 164.92C360.363 174.757 368.645 183.185 378.371 189.678C371.217 181.927 364.063 174.176 356.91 166.425Z" fill="white"/>
<path d="M488.839 268.655L456.752 96.8453C456.203 94.013 454.708 91.4514 452.512 89.5803C450.316 87.7092 447.549 86.6397 444.666 86.5472C444.407 86.5414 444.147 86.5414 443.888 86.5472L422.029 87.3313L419.676 87.4178L408.767 87.8099L406.414 87.8906L399.397 88.1443L257.899 93.2242C257.686 93.2357 257.467 93.2357 257.254 93.2299L225.546 92.5668L213.813 92.3246L213.438 92.3189L204.777 92.1344L129.312 90.566L109.304 90.1451L99.438 89.9433L97.0741 89.8914L85.8246 89.6607L83.4663 89.6088L71.9573 89.3724L69.599 89.3205L56.9541 89.0553L54.9706 89.0149L43.6923 88.7785L41.9107 88.7439H41.6512C38.657 88.7561 35.7636 89.8265 33.4824 91.7659C31.2011 93.7052 29.679 96.3887 29.1851 99.3418L0.164782 277.627C-0.129917 279.433 -0.0284557 281.281 0.462115 283.044C0.952686 284.807 1.82062 286.442 3.00585 287.836C4.19107 289.231 5.66523 290.35 7.32619 291.118C8.98715 291.886 10.7952 292.284 12.6251 292.284H179.286C181.739 292.291 184.126 293.078 186.101 294.533L189.261 296.874C191.439 298.476 194.07 299.345 196.774 299.353C228.962 290.858 262.804 290.858 294.992 299.353C296.652 299.357 298.296 299.032 299.829 298.397C301.362 297.761 302.754 296.828 303.924 295.651C305.924 293.651 308.594 292.462 311.419 292.313L477.088 283.583C478.885 283.489 480.641 283.012 482.238 282.185C483.835 281.357 485.237 280.198 486.35 278.784C487.462 277.371 488.26 275.736 488.69 273.989C489.119 272.242 489.17 270.423 488.839 268.655V268.655Z" fill="#CCCCCC"/>
<path d="M443.439 241.863C443.226 247.685 440.71 253.184 436.444 257.152C432.178 261.12 426.511 263.232 420.689 263.023C411.069 262.683 399.589 262.513 387.129 262.773C346.439 263.643 295.319 269.243 264.569 289.383C260.704 291.92 256.137 293.172 251.519 292.963C251.179 292.943 250.849 292.923 250.509 292.893C245.721 292.455 241.209 290.456 237.669 287.203C220.729 271.703 181.879 252.933 92.9489 251.613C92.5789 251.613 92.2189 251.593 91.8589 251.573C88.9786 251.392 86.1622 250.644 83.5707 249.374C80.9793 248.104 78.6636 246.335 76.7561 244.17C74.8485 242.004 73.3864 239.483 72.4535 236.752C71.5206 234.021 71.135 231.133 71.3189 228.253L80.0589 89.5428L81.3689 68.7528L83.6689 32.3828C83.9009 28.7201 85.5185 25.283 88.1931 22.7699C90.8678 20.2569 94.3989 18.8563 98.0689 18.8528H98.1589L151.139 19.1628C173.459 20.1728 191.946 23.0161 206.599 27.6928C211.604 29.2449 216.474 31.2048 221.159 33.5528C227.558 36.6551 233.307 40.9484 238.099 46.2028C241.084 49.5595 245.155 51.758 249.599 52.4128C250.288 52.5158 250.983 52.5792 251.679 52.6028C255.777 52.7724 259.821 51.615 263.209 49.3028C297.819 26.1128 368.349 24.3528 407.299 25.3528C412.746 25.4799 417.951 27.6301 421.9 31.3846C425.848 35.139 428.258 40.229 428.659 45.6628L430.239 66.3528L431.809 86.9828L440.869 206.213L443.389 239.383C443.451 240.208 443.467 241.036 443.439 241.863V241.863Z" fill="#F2F2F2"/>
<path d="M106.129 67.6626C138.056 57.4763 173.675 60.1731 203.922 74.5235C212.552 78.5968 220.703 83.6168 228.223 89.4911C230.351 91.1609 233.378 88.1741 231.228 86.4865C203.447 64.9388 168.541 54.7027 133.523 57.8347C123.835 58.7016 114.271 60.6232 105 63.5652C102.404 64.3932 103.514 68.4972 106.129 67.6626H106.129Z" fill="#3F3D56"/>
<path d="M281.813 91.1395C311.497 75.5373 347.043 72.1349 379.317 80.9914C388.518 83.5103 397.41 87.0458 405.829 91.5326C408.241 92.8195 410.39 89.1528 407.974 87.8636C377.214 71.4503 340.29 67.6719 306.7 76.8213C297.329 79.3783 288.265 82.949 279.669 87.4703C277.247 88.7432 279.392 92.412 281.813 91.1395Z" fill="#3F3D56"/>
<path d="M281.813 119.468C311.497 103.866 347.043 100.463 379.317 109.32C388.518 111.839 397.41 115.374 405.829 119.861C408.241 121.148 410.39 117.481 407.974 116.192C377.214 99.7785 340.29 96.0002 306.7 105.15C297.329 107.707 288.265 111.277 279.669 115.799C277.247 117.071 279.392 120.74 281.813 119.468L281.813 119.468Z" fill="#3F3D56"/>
<path d="M409.013 146.276C409.036 145.912 408.948 145.549 408.761 145.234C408.574 144.92 408.298 144.67 407.966 144.515C383.325 131.612 355.385 126.379 327.744 129.489C327.571 129.502 327.412 129.53 327.224 129.544H327.217C327.047 129.559 326.878 129.585 326.711 129.62C310.271 131.512 294.322 136.428 279.669 144.12C279.35 144.31 279.085 144.58 278.902 144.904C278.718 145.227 278.622 145.592 278.622 145.964V198.81C278.628 199.135 278.707 199.455 278.854 199.745C279.001 200.035 279.212 200.288 279.471 200.484C279.73 200.681 280.031 200.816 280.35 200.879C280.669 200.942 280.998 200.932 281.313 200.849C281.965 200.662 282.616 200.481 283.282 200.308C298.095 196.298 313.302 193.919 328.632 193.214C328.958 193.2 329.284 193.186 329.624 193.173C342.11 192.636 354.618 193.086 367.034 194.518C367.294 194.532 367.553 194.56 367.81 194.601C368.448 194.67 369.1 194.746 369.738 194.83C369.995 194.857 370.237 194.885 370.473 194.927C372.955 195.239 375.417 195.592 377.886 195.974C381.45 196.542 385.014 197.176 388.578 197.874C388.8 197.915 389.029 197.971 389.258 198.013C394.978 199.15 400.671 200.467 406.337 201.923C406.652 202.005 406.982 202.014 407.301 201.949C407.621 201.884 407.921 201.748 408.18 201.55C408.439 201.353 408.65 201.099 408.797 200.808C408.944 200.517 409.022 200.197 409.027 199.871V146.359C409.029 146.331 409.025 146.302 409.013 146.276V146.276Z" fill="#3F3D56"/>
<path d="M331.076 132.37C329.519 131.608 327.735 131.451 326.069 131.93C325.333 132.206 324.659 132.626 324.087 133.164C323.514 133.702 323.054 134.349 322.734 135.067C322.157 136.442 321.787 137.896 321.636 139.381C321.548 139.965 321.543 140.701 322.13 140.974C322.343 141.051 322.573 141.069 322.795 141.025C323.017 140.981 323.223 140.877 323.391 140.724C323.694 140.425 323.944 140.077 324.129 139.694C325.149 138.108 326.551 136.805 328.207 135.905C329.863 135.005 331.719 134.536 333.603 134.543L335.172 135.168C333.938 134.057 332.56 133.116 331.076 132.37V132.37Z" fill="#FF6582"/>
<path d="M348.054 144.55C346.837 142.758 345.394 140.844 343.135 140.259C340.519 139.582 337.831 140.928 335.551 142.256C328.772 146.204 322.207 150.51 315.885 155.154L315.892 155.224L330.567 154.323C334.102 154.106 337.757 153.859 340.881 152.371C342.002 151.668 343.256 151.201 344.564 150.999C345.376 151.043 346.171 151.247 346.903 151.6C347.636 151.953 348.291 152.448 348.831 153.055C355.594 159.466 357.552 169.269 365.139 174.901C360.311 164.32 354.596 154.167 348.054 144.55V144.55Z" fill="white"/>
<path d="M329.626 193.172C329.286 193.186 328.96 193.2 328.634 193.214C326.269 192.364 323.847 191.614 321.397 190.962C319.81 190.537 318.196 190.155 316.581 189.829C314.754 189.432 312.912 189.121 311.071 188.851C307.565 188.342 304.032 188.044 300.49 187.959C300.464 187.962 300.436 187.959 300.411 187.951C300.385 187.943 300.361 187.929 300.341 187.911C300.321 187.893 300.305 187.871 300.294 187.846C300.283 187.822 300.277 187.795 300.277 187.768C300.277 187.741 300.283 187.714 300.294 187.69C300.305 187.665 300.321 187.643 300.341 187.625C300.361 187.607 300.385 187.593 300.411 187.585C300.436 187.577 300.464 187.574 300.49 187.577C300.943 187.577 301.397 187.591 301.836 187.619C305.385 187.75 308.923 188.096 312.431 188.653C314.258 188.951 316.085 189.305 317.898 189.701C319.541 190.07 321.184 190.481 322.799 190.934C325.107 191.585 327.383 192.331 329.626 193.172Z" fill="white"/>
<path d="M370.475 194.928C370.235 194.885 369.994 194.857 369.739 194.829C368.761 194.021 367.77 193.257 366.736 192.506C365.447 191.571 364.116 190.693 362.756 189.871C359.745 188.043 356.601 186.443 353.351 185.084C348.213 182.944 342.894 181.266 337.459 180.07C331.258 178.711 324.982 177.728 318.663 177.124C312.346 176.472 306 176.076 299.655 175.679C299.386 175.665 299.371 175.268 299.655 175.282C300.448 175.339 301.241 175.381 302.048 175.438C308.465 175.835 314.881 176.288 321.255 177.01C327.575 177.688 333.844 178.776 340.022 180.268C345.297 181.568 350.445 183.336 355.405 185.551C358.257 186.833 361.021 188.305 363.676 189.956C365.362 191.019 366.991 192.152 368.549 193.356C369.201 193.865 369.852 194.376 370.475 194.928Z" fill="white"/>
<path d="M367.813 194.602C367.554 194.56 367.294 194.532 367.033 194.517C366.736 194.276 366.424 194.05 366.113 193.823C363.932 192.262 361.657 190.838 359.3 189.56C357.159 188.396 354.961 187.342 352.713 186.401C347.578 184.255 342.259 182.577 336.821 181.387C330.621 180.029 324.344 179.045 318.025 178.441C311.708 177.789 305.363 177.393 299.017 176.996C298.748 176.968 298.748 176.585 299.017 176.6C299.825 176.656 300.618 176.699 301.411 176.755C307.827 177.152 314.244 177.605 320.618 178.328C326.937 179.005 333.207 180.093 339.385 181.585C344.66 182.883 349.808 184.651 354.767 186.868C356.637 187.718 358.464 188.639 360.249 189.645C362.895 191.098 365.424 192.755 367.813 194.602Z" fill="white"/>
<path d="M389.257 198.016C389.03 197.973 388.804 197.917 388.577 197.874C388.322 197.605 388.081 197.322 387.84 197.038C386.623 195.636 385.419 194.22 384.229 192.789C379.54 187.208 375.093 181.458 370.9 175.594C367.303 170.58 363.889 165.467 360.66 160.254C359.116 157.79 357.628 155.297 356.17 152.775C355.036 150.821 353.932 148.862 352.855 146.897C352.544 146.331 352.246 145.764 351.949 145.198C351.254 143.866 350.56 142.521 349.824 141.203C349.023 139.59 347.848 138.191 346.396 137.124C345.671 136.638 344.831 136.35 343.96 136.289C342.732 136.293 341.524 136.605 340.447 137.195C332.523 140.885 325.048 145.471 318.167 150.863C311.447 156.09 305.371 162.095 300.065 168.753C299.896 168.951 299.527 168.767 299.683 168.554C300.32 167.761 300.972 166.968 301.623 166.189C306.723 160.157 312.465 154.7 318.748 149.914C318.762 149.9 318.79 149.886 318.805 149.872C319.357 149.433 319.909 149.008 320.476 148.597C323.984 146.014 327.635 143.631 331.411 141.458C333.337 140.339 335.306 139.277 337.317 138.271C337.813 138.017 338.323 137.762 338.832 137.521C339.342 137.266 339.853 137.025 340.362 136.784C341.372 136.269 342.475 135.966 343.606 135.892C347.544 135.835 349.569 139.801 350.971 142.478C351.41 143.314 351.864 144.15 352.303 144.985C354.003 148.144 355.773 151.288 357.614 154.39C358.733 156.317 359.895 158.229 361.07 160.127C362.756 162.832 364.484 165.509 366.283 168.172C366.283 168.174 366.283 168.176 366.284 168.177C366.284 168.179 366.285 168.181 366.287 168.182C366.288 168.183 366.289 168.184 366.291 168.185C366.293 168.186 366.294 168.186 366.296 168.186H366.297C368.379 171.331 370.546 174.418 372.784 177.492C376.623 182.747 380.645 187.884 384.852 192.903C386.297 194.63 387.765 196.335 389.257 198.016Z" fill="white"/>
<path d="M338.724 135.46L338.332 135.631C337.434 134.116 336.176 132.846 334.67 131.934C333.163 131.021 331.454 130.496 329.696 130.403C323.897 129.991 318.803 133.856 318.34 139.017C318.152 141.142 318.767 143.261 320.064 144.955L319.7 145.17C318.349 143.406 317.709 141.199 317.905 138.986C318.386 133.611 323.692 129.587 329.73 130.016C331.562 130.112 333.341 130.66 334.91 131.609C336.479 132.559 337.789 133.882 338.724 135.46V135.46Z" fill="#FF6582"/>
<path d="M310.07 145.903C308.548 145.241 306.89 144.951 305.234 145.056C303.578 145.162 301.97 145.66 300.545 146.509C305.75 147.308 310.909 148.38 316.001 149.72C313.893 148.62 312.243 146.897 310.07 145.903Z" fill="white"/>
<path d="M300.516 146.505L299.942 146.919C300.136 146.774 300.338 146.638 300.545 146.509L300.516 146.505Z" fill="white"/>
<path d="M317.775 148.909C317.546 148.683 317.319 148.456 317.089 148.229C315.326 146.311 313.203 144.757 310.841 143.657C309.638 143.15 308.348 142.884 307.043 142.873C305.694 142.905 304.361 143.164 303.099 143.639C302.505 143.85 301.925 144.09 301.353 144.345C300.7 144.638 300.058 144.95 299.419 145.264C298.22 145.855 297.036 146.472 295.868 147.114C293.544 148.393 291.293 149.769 289.115 151.242C287.986 152.006 286.88 152.796 285.797 153.61C284.79 154.366 283.803 155.143 282.837 155.94C282.63 156.11 282.322 155.835 282.529 155.666C282.783 155.454 283.041 155.245 283.298 155.037C284.026 154.452 284.765 153.878 285.516 153.315C286.885 152.286 288.29 151.297 289.73 150.348C291.97 148.872 294.286 147.495 296.68 146.219C297.876 145.582 299.089 144.971 300.318 144.388C300.689 144.211 301.065 144.039 301.445 143.876C302.312 143.487 303.207 143.163 304.122 142.906C305.435 142.53 306.808 142.409 308.166 142.552C309.467 142.718 310.729 143.107 311.897 143.701C314.213 144.999 316.302 146.665 318.083 148.633C318.269 148.82 317.962 149.096 317.775 148.909Z" fill="white"/>
<path d="M106.129 95.9909C138.056 85.8046 173.675 88.5014 203.922 102.852C212.552 106.925 220.703 111.945 228.223 117.819C230.351 119.489 233.378 116.502 231.228 114.815C203.447 93.2671 168.541 83.0309 133.523 86.163C123.835 87.0299 114.271 88.9514 105 91.8934C102.404 92.7214 103.514 96.8254 106.129 95.9909L106.129 95.9909Z" fill="#3F3D56"/>
<path d="M106.129 124.319C138.056 114.133 173.675 116.83 203.922 131.18C212.552 135.253 220.703 140.273 228.223 146.148C230.351 147.817 233.378 144.831 231.228 143.143C203.447 121.595 168.541 111.359 133.523 114.491C123.835 115.358 114.271 117.28 105 120.222C102.404 121.05 103.514 125.154 106.129 124.319L106.129 124.319Z" fill="#3F3D56"/>
<path d="M106.129 152.647C138.056 142.461 173.675 145.158 203.922 159.508C212.552 163.581 220.703 168.601 228.223 174.476C230.351 176.146 233.378 173.159 231.228 171.471C203.447 149.923 168.541 139.687 133.523 142.819C123.835 143.686 114.271 145.608 105 148.55C102.404 149.378 103.514 153.482 106.129 152.647L106.129 152.647Z" fill="#3F3D56"/>
<path d="M106.129 180.976C138.056 170.789 173.675 173.486 203.922 187.836C212.552 191.91 220.703 196.93 228.223 202.804C230.351 204.474 233.378 201.487 231.228 199.799C203.447 178.252 168.541 168.016 133.523 171.148C123.835 172.014 114.271 173.936 105 176.878C102.404 177.706 103.514 181.81 106.129 180.975L106.129 180.976Z" fill="#3F3D56"/>
<path d="M106.129 209.304C138.056 199.117 173.675 201.814 203.922 216.165C212.552 220.238 220.703 225.258 228.223 231.132C230.351 232.802 233.378 229.815 231.228 228.128C203.447 206.58 168.541 196.344 133.523 199.476C123.835 200.343 114.271 202.264 105 205.206C102.404 206.034 103.514 210.138 106.129 209.304H106.129Z" fill="#3F3D56"/>
<path d="M221.159 33.5527V101.483C221.159 102.833 218.799 103.963 215.619 104.273C215.592 104.271 215.565 104.275 215.539 104.283C215.009 104.323 214.449 104.353 213.879 104.353C212.126 104.385 210.381 104.1 208.729 103.513C208.579 103.453 208.429 103.383 208.279 103.323C208.139 103.243 207.989 103.173 207.849 103.093C207.059 102.623 206.599 102.073 206.599 101.483V27.6927C211.604 29.2449 216.474 31.2048 221.159 33.5527V33.5527Z" fill="#6C63FF"/>
<path d="M251.677 49.3081H249.597V291.543H251.677V49.3081Z" fill="#E6E6E6"/>
<path d="M477.899 215.135C479.374 215 480.802 214.543 482.081 213.797C483.361 213.05 484.461 212.032 485.305 210.815C486.148 209.597 486.715 208.21 486.964 206.749C487.213 205.289 487.139 203.792 486.747 202.364L529.925 182.208L555.92 140.159L535.487 131.91L517.951 165.794L473.566 195.371C471.21 196.189 469.236 197.842 468.017 200.018C466.798 202.194 466.42 204.741 466.954 207.177C467.488 209.613 468.897 211.769 470.915 213.235C472.932 214.702 475.417 215.378 477.899 215.135V215.135Z" fill="#FFB6B6"/>
<path d="M571.954 99.8773C571.954 99.8773 577.043 101.538 571.458 111.409C566.987 119.31 545.205 164.826 536.315 173.763C537.251 175.262 537.661 177.029 537.481 178.787C537.302 180.545 536.542 182.193 535.323 183.471L514.8 167.185C514.408 161.262 518.328 160.674 520.651 160.874L525.372 144.141L541.84 102.862L568.297 98.6113L571.954 99.8773Z" fill="#6C63FF"/>
<path d="M572.398 22.5082C573.368 18.585 580.407 15.6882 568.349 10.2109C565.422 8.8816 565.544 4.3038 563.068 2.2537C560.593 0.203602 556.968 -0.74685 554.091 0.68609C551.521 1.9657 550.073 4.8615 549.765 7.7152C549.617 10.5874 549.948 13.4641 550.746 16.2273L550.512 16.5688C555.289 20.2239 560.065 23.879 564.842 27.5339C566.597 28.8771 568.892 30.2835 570.859 29.2757C573.086 28.1348 571.797 24.9371 572.398 22.5082Z" fill="#2F2E41"/>
</svg>
