<svg width="46" height="46" viewBox="0 0 46 46" fill="none" xmlns="http://www.w3.org/2000/svg">
<path d="M23 0C18.451 0 14.0042 1.34893 10.2219 3.8762C6.43956 6.40347 3.4916 9.99558 1.75078 14.1983C0.00996554 18.401 -0.445511 23.0255 0.441949 27.4871C1.32941 31.9486 3.51995 36.0468 6.73655 39.2634C9.95316 42.4801 14.0514 44.6706 18.5129 45.558C22.9745 46.4455 27.599 45.99 31.8017 44.2492C36.0044 42.5084 39.5965 39.5604 42.1238 35.7781C44.6511 31.9958 46 27.549 46 23C45.9941 16.9018 43.5691 11.0551 39.257 6.74301C34.9449 2.43094 29.0982 0.00585519 23 0ZM23 42.4615C19.1509 42.4615 15.3882 41.3201 12.1878 39.1817C8.98732 37.0432 6.49289 34.0037 5.01989 30.4476C3.54689 26.8915 3.16149 22.9784 3.91242 19.2032C4.66335 15.4281 6.51688 11.9604 9.23862 9.23861C11.9604 6.51687 15.4281 4.66334 19.2032 3.91241C22.9784 3.16148 26.8915 3.54688 30.4476 5.01988C34.0037 6.49288 37.0432 8.98731 39.1817 12.1877C41.3201 15.3882 42.4615 19.1509 42.4615 23C42.4557 28.1597 40.4034 33.1064 36.7549 36.7549C33.1064 40.4034 28.1597 42.4557 23 42.4615ZM31.3375 28.8163C31.6697 29.1518 31.8561 29.6048 31.8561 30.0769C31.8561 30.549 31.6697 31.0021 31.3375 31.3375C30.9993 31.6645 30.5473 31.8473 30.0769 31.8473C29.6065 31.8473 29.1545 31.6645 28.8164 31.3375L23 25.499L17.1837 31.3375C16.8455 31.6645 16.3935 31.8473 15.9231 31.8473C15.4527 31.8473 15.0007 31.6645 14.6625 31.3375C14.3303 31.0021 14.1439 30.549 14.1439 30.0769C14.1439 29.6048 14.3303 29.1518 14.6625 28.8163L20.501 23L14.6625 17.1836C14.3804 16.8399 14.2362 16.4035 14.258 15.9593C14.2798 15.5152 14.4661 15.095 14.7805 14.7805C15.095 14.4661 15.5152 14.2798 15.9593 14.258C16.4035 14.2362 16.8399 14.3804 17.1837 14.6625L23 20.501L28.8164 14.6625C29.1601 14.3804 29.5965 14.2362 30.0407 14.258C30.4848 14.2798 30.905 14.4661 31.2195 14.7805C31.5339 15.095 31.7202 15.5152 31.742 15.9593C31.7638 16.4035 31.6196 16.8399 31.3375 17.1836L25.499 23L31.3375 28.8163Z" fill="#6C6B6B"/>
</svg>
