<svg width="610" height="557" viewBox="0 0 610 557" fill="none" xmlns="http://www.w3.org/2000/svg">
<path d="M609.17 553.838H449.904V548.95C449.904 544.707 451.59 540.637 454.591 537.637C457.591 534.636 461.661 532.95 465.904 532.95H593.17C597.413 532.95 601.483 534.636 604.484 537.637C607.484 540.637 609.17 544.707 609.17 548.95V553.838Z" fill="#E6E6E6"/>
<path d="M525.81 533.925L530.653 531.975C479.976 406.186 484.858 247.493 527.697 111.362C532.786 95.5892 533.153 78.673 528.753 62.6945C524.353 46.7159 515.378 32.3721 502.933 21.4276C478.068 -0.761345 443.788 -6.16676 413.466 7.31934C383.535 20.6333 379.41 43.8243 379.41 66.9025H384.631C384.631 42.2677 389.896 23.519 415.588 12.0905C444.007 -0.548442 476.143 4.52105 499.455 25.3242C511.145 35.6034 519.575 49.0756 523.708 64.0833C527.84 79.091 527.496 94.9795 522.716 109.794C479.383 247.496 474.787 407.28 525.81 533.925Z" fill="#E6E6E6"/>
<path d="M383.326 143.924C393.42 143.924 401.602 135.742 401.602 125.648C401.602 115.554 393.42 107.372 383.326 107.372C373.232 107.372 365.05 115.554 365.05 125.648C365.05 135.742 373.232 143.924 383.326 143.924Z" fill="#E6E6E6"/>
<path d="M355.179 157.509V122.88H360.563V157.509C362.108 158.134 363.387 159.276 364.182 160.741C364.976 162.205 365.237 163.9 364.918 165.536C364.6 167.171 363.723 168.645 362.437 169.705C361.151 170.765 359.537 171.344 357.871 171.344C356.205 171.344 354.591 170.765 353.305 169.705C352.019 168.645 351.142 167.171 350.824 165.536C350.505 163.9 350.766 162.205 351.56 160.741C352.355 159.276 353.634 158.134 355.179 157.509Z" fill="#E6E6E6"/>
<path d="M329.15 96.275C329.159 88.3145 332.325 80.6827 337.954 75.0538C343.583 69.4248 351.215 66.2585 359.175 66.2495H408.782C416.746 66.2495 424.383 69.4129 430.014 75.0438C435.644 80.6746 438.808 88.3117 438.808 96.275C438.808 104.238 435.644 111.875 430.014 117.506C424.383 123.137 416.746 126.301 408.782 126.301H359.175C351.215 126.291 343.583 123.125 337.954 117.496C332.325 111.867 329.159 104.235 329.15 96.275Z" fill="#6C63FF"/>
<path d="M259.255 282.212C264.236 218.489 289.702 188.128 273.395 169.089C257.776 150.851 213.779 154.619 185.523 172.119C109.311 219.321 81.3894 407.452 179.463 499.368C272.657 586.711 449.28 558.737 488.531 487.247C497.689 470.567 504.965 441.325 491.561 423.616C458.283 379.649 337.29 459.285 283.496 409.475C251.615 379.956 256.521 317.183 259.255 282.212Z" fill="#3F3D56"/>
<path d="M317.512 250.554C315.661 251.406 314.216 252.946 313.483 254.847C312.75 256.748 312.788 258.86 313.589 260.734C313.757 261.112 313.957 261.476 314.186 261.821L297.828 283.663L305.99 295.863L325.164 263.52C326.522 262.46 327.492 260.981 327.921 259.313C328.351 257.644 328.216 255.881 327.537 254.297C327.143 253.4 326.575 252.589 325.867 251.911C325.159 251.233 324.324 250.701 323.411 250.345C322.497 249.99 321.523 249.818 320.543 249.839C319.563 249.86 318.596 250.074 317.699 250.469C317.636 250.497 317.574 250.525 317.512 250.554Z" fill="#FFB6B6"/>
<path d="M317.499 288.213C318.57 289.162 315.6 290.334 312.459 288.485C311.56 287.95 311.176 287.728 311.075 287.869C310.823 288.223 312.298 290.829 311.904 296.616C311.661 300.07 305.924 306.565 299.41 312.898C290.602 321.463 280.361 329.725 280.361 329.725L276.765 326.846L239.06 296.616L232.697 287.809C233.28 284.33 234.155 280.908 235.313 277.577C236.909 272.966 238.805 268.465 240.99 264.103C242.161 261.73 243.363 259.467 244.515 257.387L264.715 279.648L281.643 298.293C281.643 298.293 286.572 290.354 290.39 288.192C290.877 287.881 291.431 287.691 292.006 287.637C295.864 287.455 296.097 285.354 291.622 280.779C287.148 276.203 292.794 280.476 296.773 279.244C300.753 278.011 296.773 279.244 297.612 276.163C298.45 273.082 309.611 266.901 309.611 266.901L310.076 267.315L318.509 274.759L320.923 276.89C320.923 276.89 318.287 284.122 317.56 285.647C316.833 287.172 316.439 287.253 317.499 288.213Z" fill="#6C63FF"/>
<path d="M539.823 428.521L540.234 417.38L497.458 410.493L496.851 426.935L539.823 428.521Z" fill="#FFB6B6"/>
<path d="M532.058 431.875L531.653 414.037L539.278 414.319L551.59 397.828C552.197 397.014 553.05 396.415 554.022 396.119C554.995 395.823 556.036 395.846 556.995 396.184C557.953 396.522 558.779 397.158 559.35 397.998C559.922 398.838 560.21 399.84 560.173 400.855L559.391 422.045L551.713 425.419L559.203 427.124L558.909 435.113L532.058 431.875Z" fill="#2F2E41"/>
<path d="M299.074 432.858L434.562 436.294C434.562 436.294 493.07 439.673 506.798 430.743L521.274 428.916L522.059 407.652C522.059 407.652 513.206 407.717 508.117 405.346C503.028 402.974 506.565 400.073 501.712 402.926C496.86 405.779 497.372 406.122 493.621 404.811C489.869 403.5 317.826 377.276 317.826 377.276L299.074 432.858Z" fill="#2F2E41"/>
<path d="M477.611 423.631L485.49 415.744L458.815 381.601L447.187 393.243L477.611 423.631Z" fill="#FFB6B6"/>
<path d="M469.638 416.769L481.472 403.416L486.871 408.809L507.112 405.093C508.112 404.91 509.144 405.05 510.058 405.495C510.972 405.939 511.72 406.664 512.193 407.564C512.666 408.464 512.839 409.491 512.686 410.496C512.534 411.501 512.064 412.431 511.346 413.15L496.361 428.152L488.437 425.404L492.769 431.748L487.12 437.405L469.638 416.769Z" fill="#2F2E41"/>
<path d="M245.62 358.656L246.967 389.967C248.553 426.826 289.145 449.135 320.621 429.89C321.202 429.535 321.784 429.168 322.368 428.788C322.368 428.788 334.3 425.583 333.938 420.508C333.576 415.433 336.491 412.963 339.071 414.347C341.651 415.731 375.428 367.795 375.428 367.795C375.428 367.795 445.606 402.801 461.088 411.042C461.088 411.042 475.644 388.283 474.589 388.521C473.533 388.76 387.77 328.733 387.77 328.733C387.77 328.733 373.798 314.593 356.466 323.929C356.105 325.3 356.414 325.348 356.414 325.348L299.161 372L291.071 356.637L245.62 358.656Z" fill="#2F2E41"/>
<path d="M299.602 319.513C299.493 320.96 299.287 322.397 298.985 323.816C298.573 325.87 297.908 327.865 297.006 329.755C297.006 329.755 297.006 331.866 292.966 338.936C288.926 346.006 293.976 342.976 297.006 348.228C300.036 353.47 297.006 351.057 293.642 354.43C292.674 355.412 291.986 356.635 291.651 357.972C291.315 359.31 291.343 360.713 291.733 362.035C291.733 362.035 248.343 362.066 240.262 359.036C232.182 356.006 230.344 338.936 237.586 337.249C244.818 335.563 235.394 333.886 231.142 329.997C226.89 326.109 235.394 319.746 235.394 319.746C235.394 319.746 231.889 313.696 232.182 293.384C232.224 291.516 232.396 289.653 232.697 287.809C233.28 284.331 234.155 280.908 235.313 277.577C236.909 272.966 238.805 268.466 240.99 264.103C242.161 261.73 243.363 259.467 244.515 257.387C244.696 257.063 244.868 256.75 245.05 256.437C247.242 252.559 249.242 249.387 250.565 247.357C251.585 245.781 252.201 244.893 252.201 244.893L259.554 232.106L284.098 243.61L282.704 262.427L286.936 276.617L288.885 283.152L290.39 288.192L292.713 296C292.713 296 292.077 296.03 292.834 297.071C296.323 301.709 298.585 307.153 299.41 312.898C299.7 315.09 299.765 317.307 299.602 319.513Z" fill="#6C63FF"/>
<path d="M370.481 321.541L370.02 321.392L311.276 302.476L332.923 231.459C333.354 230.045 334.1 228.747 335.106 227.663C336.111 226.579 337.35 225.738 338.728 225.202C340.106 224.667 341.587 224.451 343.061 224.572C344.534 224.692 345.961 225.145 347.234 225.897L384.774 248.076C387.746 249.83 390.007 252.572 391.162 255.824C392.317 259.075 392.292 262.629 391.093 265.864L370.481 321.541Z" fill="#2F2E41"/>
<path d="M370.719 326.056L311.502 306.987L333.149 235.97C333.58 234.556 334.327 233.258 335.332 232.174C336.338 231.091 337.576 230.249 338.954 229.714C340.332 229.178 341.814 228.962 343.288 229.083C344.761 229.203 346.188 229.656 347.461 230.408L386.793 250.046C392.702 253.536 392.564 262.569 389.82 269.981L370.719 326.056Z" fill="#6C63FF"/>
<path d="M364.791 331.196C363.427 331.965 361.918 332.443 360.36 332.598C358.802 332.753 357.229 332.582 355.741 332.096L317.891 319.907C314.987 318.958 312.569 316.912 311.153 314.204C309.738 311.497 309.437 308.343 310.316 305.417L329.292 243.162C329.671 241.919 330.295 240.763 331.127 239.764C331.958 238.764 332.981 237.941 334.135 237.342C335.289 236.743 336.551 236.38 337.847 236.275C339.143 236.17 340.447 236.325 341.683 236.731L380.907 249.61C382.776 250.224 384.503 251.205 385.986 252.498C387.469 253.79 388.678 255.366 389.542 257.133C390.405 258.901 390.906 260.823 391.014 262.787C391.123 264.751 390.836 266.717 390.172 268.569L369.883 325.134C368.971 327.702 367.163 329.855 364.791 331.196Z" fill="#3F3D56"/>
<path d="M282.71 232.324C297.683 232.324 309.82 220.186 309.82 205.214C309.82 190.241 297.683 178.104 282.71 178.104C267.738 178.104 255.6 190.241 255.6 205.214C255.6 220.186 267.738 232.324 282.71 232.324Z" fill="#FFB6B6"/>
<path d="M191.037 232.732C193.524 237.555 197.604 241.368 202.583 243.526C204.569 244.431 206.658 245.092 208.804 245.495C209.411 243.09 210.382 240.791 211.684 238.679C211.25 241.059 211.25 243.498 211.684 245.879C214.953 246.146 218.242 245.738 221.347 244.679C224.396 243.642 227.161 241.909 229.424 239.617C231.686 237.325 233.383 234.537 234.38 231.475C236.54 224.289 234.214 216.614 234.031 209.113C233.842 201.611 237.404 192.639 244.851 191.711C250.522 191.003 249.821 191.553 253.896 195.559C248.196 201.891 262.092 229.936 269.549 228.697C273.764 227.996 276.867 224.649 277.701 224.765C281.97 235.221 269.127 250.051 279.313 254.919L278.557 253.919C273.225 245.111 289.002 230.233 283.671 221.425C282.184 218.961 280.638 216.072 281.558 213.346C282.431 210.754 286.851 209.934 287.784 212.293C286.268 206.887 290.5 200.541 296.122 199.989C301.116 199.496 300.828 200.92 305.589 202.218C306.198 200.167 307.074 198.205 308.197 196.384C307.817 198.462 307.77 200.587 308.058 202.68C309.775 202.885 311.512 202.517 312.999 201.634C317.397 198.998 317.527 192.194 314.507 188.053C311.481 183.911 306.412 181.866 301.522 180.318C301.477 169.977 273.65 165.026 268.532 174.641C268.006 166.856 259.082 161.612 251.394 162.934C243.707 164.257 237.642 170.421 233.945 177.291C230.248 184.157 228.413 191.844 225.706 199.156C223 206.469 219.131 213.76 212.651 218.099C206.171 222.432 196.541 222.826 191.131 217.209C189.897 219.608 189.245 222.263 189.229 224.96C189.213 227.657 189.832 230.319 191.037 232.732Z" fill="#2F2E41"/>
<path d="M218.854 356.705C219.415 356.256 220.023 355.871 220.668 355.556C231.045 350.391 263.314 336.986 288.546 337.536C337.093 338.594 398.877 392.173 384.498 428.153C373.557 455.531 319.162 471.107 279.455 458.649C223.83 441.196 201.873 370.244 218.854 356.705Z" fill="#3F3D56"/>
<path d="M17.311 553.941C1.44747 550.948 -12.5946 479.48 18.6164 444.282C29.3098 432.223 42.6483 426.974 60.391 422.09C162.512 393.975 240.402 420.769 250.869 427.311C261.313 433.839 279.622 532.187 256.209 546.108C243.037 553.941 216.927 557.857 203.991 548.719C184.956 535.273 216.906 500.395 202.686 476.919C186.548 450.278 101.571 441.304 58.9673 467.78C13.5135 496.028 107.269 570.912 17.311 553.941Z" fill="#F2F2F2"/>
<path d="M123.372 432.43H62.768C47.8073 418.092 37.1104 404.274 45.6744 392.804C45.6744 389.507 46.9842 386.345 49.3156 384.014C51.647 381.682 54.809 380.373 58.1061 380.373H128.034C131.331 380.373 134.493 381.682 136.825 384.014C139.156 386.345 140.466 389.507 140.466 392.804C143.726 405.874 137.901 419.084 123.372 432.43Z" fill="#CCCCCC"/>
<path d="M112.488 364.722C111.913 364.749 111.344 364.598 110.858 364.29C110.371 363.982 109.991 363.532 109.769 363.001C109.547 362.47 109.494 361.883 109.616 361.321C109.739 360.758 110.031 360.247 110.454 359.856L110.646 359.092C110.621 359.03 110.595 358.969 110.57 358.908C109.99 357.54 109.02 356.373 107.779 355.555C106.539 354.736 105.085 354.303 103.599 354.308C102.113 354.314 100.662 354.758 99.4279 355.586C98.1939 356.413 97.2319 357.587 96.6628 358.96C94.3883 364.438 91.4924 369.925 90.7794 375.717C90.4653 378.278 90.5978 380.873 91.1709 383.388C85.8287 371.735 83.0546 359.069 83.0368 346.249C83.0356 343.032 83.2144 339.818 83.5721 336.621C83.8678 334 84.278 331.398 84.8027 328.815C87.666 314.797 93.8136 301.658 102.741 290.477C107.061 288.12 110.556 284.494 112.753 280.09C113.548 278.507 114.111 276.816 114.423 275.072C113.935 275.136 112.585 267.713 112.952 267.257C112.273 266.227 111.057 265.714 110.316 264.709C106.626 259.706 101.543 260.58 98.8895 267.377C93.2208 270.238 93.1659 274.983 96.6442 279.547C98.8571 282.45 99.1612 286.378 101.103 289.486C100.903 289.742 100.695 289.99 100.496 290.245C96.8439 294.941 93.6613 299.983 90.9933 305.299C91.6421 299.343 90.8677 293.319 88.7338 287.721C86.5712 282.503 82.5175 278.109 78.9478 273.599C74.66 268.182 65.8675 270.546 65.1121 277.413C65.1048 277.48 65.0976 277.546 65.0907 277.613C65.6209 277.912 66.1399 278.229 66.6477 278.565C67.2857 278.992 67.7801 279.601 68.066 280.313C68.3519 281.025 68.4161 281.806 68.2502 282.555C68.0842 283.305 67.6958 283.986 67.1359 284.511C66.576 285.035 65.8707 285.378 65.1124 285.495L65.0348 285.507C65.2236 287.418 65.5575 289.312 66.0335 291.172C61.454 308.882 71.3408 315.333 85.4578 315.623C85.7695 315.782 86.0732 315.942 86.3848 316.094C83.7042 323.691 82.0228 331.603 81.3829 339.633C81.0206 344.371 81.0419 349.13 81.4468 353.864L81.4228 353.696C80.4 348.432 77.5918 343.682 73.4724 340.249C67.3542 335.223 58.7103 333.372 52.1099 329.332C51.4084 328.882 50.5927 328.641 49.7591 328.639C48.9255 328.637 48.1087 328.874 47.4051 329.321C46.7014 329.768 46.1402 330.406 45.7877 331.162C45.4352 331.917 45.3061 332.758 45.4156 333.584C45.4245 333.643 45.4335 333.702 45.4426 333.761C46.4266 334.161 47.3846 334.623 48.3111 335.143C48.8413 335.442 49.3603 335.759 49.8682 336.095C50.5061 336.522 51.0004 337.131 51.2864 337.843C51.5723 338.555 51.6365 339.336 51.4705 340.085C51.3046 340.834 50.9162 341.516 50.3563 342.041C49.7964 342.565 49.0911 342.908 48.3328 343.025L48.2551 343.037C48.1992 343.045 48.1512 343.053 48.0954 343.061C49.7766 347.075 52.1362 350.77 55.0709 353.984C57.9343 369.444 70.2328 370.911 83.3884 366.409H83.3964C84.8398 372.681 86.9312 378.787 89.6368 384.627H111.93C112.01 384.379 112.081 384.123 112.153 383.875C110.09 384.005 108.018 383.882 105.985 383.508C107.639 381.478 109.293 379.433 110.947 377.403C110.984 377.365 111.018 377.325 111.051 377.283C111.89 376.245 112.737 375.214 113.576 374.175L113.576 374.174C113.621 370.99 113.255 367.814 112.489 364.723L112.488 364.722Z" fill="#CCCCCC"/>
<path d="M188.525 429.183C188.894 430.259 189.596 431.191 190.528 431.844C191.46 432.497 192.576 432.838 193.714 432.818L215.947 432.245C217.093 432.223 218.201 431.83 219.106 431.126C220.011 430.421 220.663 429.443 220.966 428.337L224.112 394.695C225.228 395.2 226.444 395.45 227.669 395.425C229.818 395.371 231.859 394.466 233.341 392.908C234.822 391.349 235.625 389.266 235.571 387.116C235.517 384.967 234.611 382.926 233.053 381.445C231.495 379.963 229.411 379.16 227.262 379.214C226.772 379.213 226.284 379.264 225.805 379.366C225.284 378.802 224.651 378.354 223.946 378.05C223.242 377.746 222.481 377.593 221.714 377.601L187.515 378.484C187.231 378.495 186.949 378.53 186.671 378.589C185.921 378.729 185.21 379.027 184.585 379.465C183.961 379.903 183.437 380.47 183.049 381.127C182.662 381.784 182.42 382.516 182.339 383.275C182.258 384.034 182.341 384.801 182.582 385.525L188.525 429.183ZM224.757 392.41L226.996 384.393C227.251 383.467 227.257 382.49 227.013 381.561C227.122 381.561 227.218 381.51 227.326 381.509C228.861 381.478 230.346 382.056 231.455 383.118C232.564 384.179 233.207 385.637 233.243 387.172C233.279 388.707 232.705 390.193 231.646 391.305C230.588 392.417 229.132 393.065 227.598 393.105C226.605 393.136 225.623 392.896 224.757 392.41Z" fill="#CCCCCC"/>
<path d="M186.671 378.589C187.4 382.755 195.592 385.684 205.442 385.175C214.499 384.757 221.905 381.577 223.262 377.807C222.76 377.659 222.238 377.589 221.714 377.601L187.515 378.484C187.231 378.495 186.949 378.53 186.671 378.589Z" fill="white"/>
<path d="M350.16 289.414C348.124 289.488 346.197 290.354 344.79 291.827C343.382 293.3 342.605 295.265 342.624 297.302C342.634 297.716 342.679 298.129 342.757 298.535L319.259 312.409L322.103 326.809L352.239 304.324C353.9 303.869 355.364 302.876 356.402 301.501C357.439 300.126 357.993 298.446 357.975 296.723C357.956 295.743 357.744 294.777 357.351 293.878C356.958 292.98 356.392 292.168 355.686 291.489C354.979 290.81 354.146 290.276 353.233 289.919C352.32 289.561 351.345 289.387 350.365 289.407C350.297 289.408 350.229 289.41 350.16 289.414Z" fill="#FFB6B6"/>
<path d="M330.911 322.486C330.282 321.644 330.012 321.292 329.869 321.389C329.501 321.611 329.855 324.586 327.267 329.771C323.624 337.056 285.423 348.214 285.423 348.214L280.72 339.603L260.032 301.763L252.902 271.434C252.652 270.376 252.531 269.292 252.541 268.206C258.899 263.732 265.65 259.846 272.712 256.595C275.534 258.196 277.685 260.759 278.773 263.816L293.013 303.745L298.696 319.687C298.696 319.687 308.72 312.519 312.356 313.835C315.986 315.159 317.018 313.302 314.645 307.36C312.272 301.417 315.834 307.534 319.979 307.923C324.132 308.318 319.979 307.923 321.94 305.401C323.902 302.88 336.585 301.461 336.585 301.461L336.855 302.023L341.77 312.134L343.177 315.039C343.177 315.039 337.966 320.692 336.709 321.819C335.446 322.954 335.056 322.875 335.674 324.168C336.284 325.455 333.094 325.397 330.911 322.486Z" fill="#6C63FF"/>
</svg>
